<svg width="30" height="30" viewBox="0 0 30 30" fill="none" xmlns="http://www.w3.org/2000/svg">
<path d="M29.4536 13.7697C29.9766 12.9538 30.1328 11.949 29.882 11.0128C29.6311 10.0766 28.9935 9.28446 28.1325 8.8393C27.3436 8.43153 26.8604 7.59472 26.9017 6.70751C26.9468 5.73938 26.5795 4.79106 25.8942 4.10577C25.209 3.42054 24.2606 3.05344 23.2925 3.09832C23.1528 3.10489 23.012 3.0985 22.8737 3.07934C22.5534 3.03469 22.2572 3.25876 22.213 3.5794C22.1686 3.89998 22.3925 4.19583 22.7131 4.24013C22.9224 4.26914 23.1357 4.27875 23.3469 4.26896C23.9949 4.23843 24.6061 4.4751 25.0655 4.93444C25.5249 5.39378 25.7612 6.00412 25.731 6.65301C25.6686 7.99616 26.3999 9.26295 27.5943 9.88033C28.1714 10.1787 28.5818 10.6885 28.7499 11.3161C28.9181 11.9435 28.8176 12.5902 28.467 13.1371C27.7413 14.269 27.7413 15.7318 28.467 16.8638C28.8176 17.4106 28.9181 18.0573 28.7499 18.6848C28.5818 19.3123 28.1714 19.8221 27.5944 20.1205C26.3999 20.7379 25.6686 22.0047 25.731 23.3478C25.7612 23.9967 25.5248 24.6071 25.0655 25.0664C24.6062 25.5258 23.9965 25.7626 23.3469 25.7319C22.0027 25.6704 20.737 26.4008 20.1196 27.5952C19.8213 28.1723 19.3114 28.5827 18.6839 28.7508C18.0563 28.919 17.4097 28.8185 16.8629 28.4679C15.731 27.7423 14.2683 27.7421 13.1362 28.4679C12.5894 28.8185 11.9428 28.9191 11.3152 28.7508C10.6877 28.5827 10.1778 28.1723 9.87951 27.5952C9.26208 26.4009 7.9964 25.6706 6.65214 25.7319C6.00248 25.7616 5.3929 25.5257 4.93356 25.0664C4.47423 24.6071 4.23785 23.9967 4.26808 23.3478C4.33049 22.0047 3.59915 20.7379 2.40478 20.1205C1.82766 19.8221 1.41725 19.3123 1.24914 18.6848C1.08103 18.0573 1.18152 17.4106 1.5321 16.8638C2.25776 15.7319 2.25776 14.269 1.5321 13.1371C1.18152 12.5902 1.08103 11.9435 1.24914 11.3161C1.41725 10.6885 1.82766 10.1787 2.40472 9.88039C3.59915 9.26295 4.33049 7.99616 4.26808 6.65301C4.23785 6.00412 4.47429 5.39378 4.93356 4.93444C5.39296 4.4751 6.0033 4.23867 6.65214 4.26896C7.99757 4.33096 9.26208 3.60002 9.87945 2.40565C10.1778 1.82854 10.6877 1.41813 11.3152 1.25002C11.9427 1.08179 12.5894 1.1824 13.1362 1.53298C14.2681 2.25858 15.7309 2.25858 16.8628 1.53298C17.3212 1.23912 17.8693 1.1187 18.4067 1.19371C18.7271 1.23906 19.0232 1.01499 19.0681 0.694465C19.1129 0.373942 18.8893 0.0778548 18.5688 0.0330871C17.7547 -0.0808242 16.9243 0.101586 16.2304 0.546391C15.4827 1.02571 14.5164 1.02577 13.7687 0.546333C12.9529 0.0233016 11.9481 -0.132741 11.0119 0.117935C10.0757 0.368786 9.28353 1.00643 8.83837 1.86739C8.4306 2.65633 7.59314 3.14039 6.70657 3.09821C5.7371 3.05361 4.79012 3.42043 4.10484 4.10565C3.41955 4.791 3.05233 5.73926 3.09739 6.70739C3.13864 7.5946 2.65551 8.43141 1.86651 8.83924C1.00561 9.28434 0.367968 10.0765 0.117117 11.0127C-0.133675 11.9488 0.0224841 12.9536 0.545574 13.7695C1.02495 14.5172 1.02495 15.4835 0.545515 16.2312C0.0224841 17.0471 -0.133675 18.0519 0.117117 18.988C0.367968 19.9242 1.00561 20.7164 1.86657 21.1615C2.65551 21.5693 3.13864 22.4061 3.09739 23.2933C3.05233 24.2615 3.41955 25.2097 4.10484 25.8951C4.79018 26.5804 5.73891 26.9476 6.70657 26.9025C7.59284 26.8609 8.43054 27.3444 8.83843 28.1334C9.28352 28.9943 10.0757 29.6319 11.0119 29.8828C11.3049 29.9613 11.6046 29.9999 11.9031 29.9999C12.5585 29.9999 13.2081 29.8137 13.7687 29.4544C14.5165 28.975 15.4828 28.975 16.2304 29.4544C17.0462 29.9774 18.051 30.1335 18.9872 29.8828C19.9234 29.6319 20.7156 28.9943 21.1607 28.1333C21.5685 27.3444 22.4054 26.861 23.2925 26.9025C24.262 26.9468 25.2089 26.5803 25.8942 25.8951C26.5795 25.2098 26.9468 24.2615 26.9017 23.2933C26.8604 22.4061 27.3436 21.5693 28.1326 21.1615C28.9935 20.7164 29.6311 19.9242 29.882 18.988C30.1328 18.0519 29.9766 17.0471 29.4535 16.2312C28.9742 15.4836 28.9742 14.5173 29.4536 13.7697Z" fill="white"/>
<path d="M14.9991 26.3836C18.0397 26.3836 20.8983 25.1996 23.0482 23.0496C23.2771 22.8208 23.2771 22.4497 23.0482 22.2209C22.8194 21.9921 22.4484 21.9921 22.2195 22.2209C20.2909 24.1496 17.7266 25.2117 14.9991 25.2117C12.2715 25.2117 9.7073 24.1496 7.77866 22.2209C7.54984 21.9922 7.17893 21.9921 6.94993 22.2209C6.72112 22.4497 6.72112 22.8207 6.94993 23.0496C9.10007 25.1996 11.9586 26.3836 14.9991 26.3836Z" fill="white"/>
<path d="M14.9991 3.61733C11.9586 3.61733 9.10002 4.80139 6.95006 6.95135C6.72124 7.18017 6.72124 7.5512 6.95006 7.78008C7.17893 8.00884 7.54985 8.00884 7.77879 7.78008C9.70743 5.85138 12.2717 4.78926 14.9992 4.78926C17.7268 4.78926 20.291 5.85138 22.2196 7.78008C22.3341 7.89446 22.484 7.95171 22.634 7.95171C22.7839 7.95171 22.9339 7.89446 23.0483 7.78008C23.2771 7.55126 23.2771 7.18023 23.0483 6.95135C20.8983 4.80139 18.0397 3.61733 14.9991 3.61733Z" fill="white"/>
<path d="M11.8197 13.8749C11.8197 12.88 10.9794 12.0706 9.94649 12.0706H8.87658C8.87635 12.0706 8.87605 12.0707 8.87582 12.0707C8.87558 12.0707 8.87529 12.0706 8.87506 12.0706C8.55149 12.0706 8.28909 12.333 8.28909 12.6566V17.3443C8.28909 17.6679 8.55149 17.9303 8.87506 17.9303C9.19863 17.9303 9.46102 17.6679 9.46102 17.3443V16.217L10.7939 17.7314C10.9097 17.863 11.0714 17.9303 11.234 17.9303C11.3715 17.9303 11.5096 17.8822 11.6209 17.7842C11.8638 17.5704 11.8874 17.2001 11.6736 16.9572L10.4822 15.6036C11.2548 15.381 11.8197 14.6905 11.8197 13.8749ZM9.94649 14.5072C9.8194 14.5072 9.64179 14.5079 9.46794 14.5088C9.46671 14.2729 9.46501 13.49 9.4643 13.2426H9.94649C10.3266 13.2426 10.6478 13.5321 10.6478 13.8749C10.6478 14.2177 10.3266 14.5072 9.94649 14.5072Z" fill="white"/>
<path d="M5.56014 12.0706H4.19842C3.87485 12.0706 3.61246 12.333 3.61246 12.6566V17.3443C3.61246 17.5002 3.67457 17.6496 3.78497 17.7596C3.89483 17.8689 4.04349 17.9303 4.19842 17.9303H4.201C4.201 17.9303 5.45285 17.9247 5.79793 17.9247C6.8168 17.9247 7.64565 17.0958 7.64565 16.0769C7.64565 15.4966 7.37651 14.9782 6.95679 14.6392C7.12601 14.3787 7.22475 14.0684 7.22475 13.7352C7.22475 12.8174 6.478 12.0706 5.56014 12.0706ZM5.56014 13.2426C5.83185 13.2426 6.05282 13.4635 6.05282 13.7352C6.05282 14.0069 5.83185 14.2279 5.56014 14.2279C5.46 14.2279 4.78444 14.2291 4.78444 14.2291V13.2425H5.56014V13.2426ZM5.79793 16.7528C5.6113 16.7528 5.16046 16.7544 4.78439 16.7559V15.4022C4.87837 15.4019 5.79793 15.4012 5.79793 15.4012C6.17054 15.4012 6.47372 15.7044 6.47372 16.077C6.47372 16.4497 6.17054 16.7528 5.79793 16.7528Z" fill="white"/>
<path d="M26.3859 15.0005C26.3859 13.2481 25.3896 12.0706 23.9068 12.0706H23.0623C22.9067 12.0706 22.7575 12.1325 22.6475 12.2427C22.5377 12.3528 22.476 12.5021 22.4763 12.6577C22.4763 12.6578 22.4858 17.3295 22.4858 17.3465C22.4864 17.5023 22.549 17.6514 22.6598 17.761C22.7695 17.8695 22.9176 17.9303 23.0718 17.9303H23.0762C23.0812 17.9303 23.5788 17.9265 23.9559 17.9199C25.3639 17.8953 26.3859 16.6675 26.3859 15.0005ZM23.6558 16.7523C23.654 16.1976 23.6503 13.8188 23.6493 13.2426H23.9069C24.5388 13.2426 25.214 13.7044 25.214 15.0005C25.214 15.8592 24.8187 16.7327 23.9356 16.7482C23.8464 16.7497 23.7503 16.7511 23.6558 16.7523Z" fill="white"/>
<path d="M12.8059 17.8996C12.8681 17.9205 12.9311 17.9304 12.9932 17.9304C13.2377 17.9304 13.4659 17.7761 13.5484 17.5315L13.674 17.1587H15.5894L15.7135 17.5299C15.816 17.8369 16.1477 18.0026 16.4549 17.9C16.7618 17.7975 16.9275 17.4656 16.8249 17.1587L15.281 12.5368C15.2794 12.5318 15.2776 12.5268 15.2758 12.5219C15.1775 12.2519 14.9213 12.0706 14.6382 12.0706C14.638 12.0706 14.6378 12.0706 14.6375 12.0706C14.3541 12.0709 14.098 12.2528 14.0002 12.5233C13.9987 12.5273 13.9973 12.5314 13.996 12.5355L12.4378 17.1571C12.3345 17.4638 12.4992 17.7962 12.8059 17.8996ZM14.6361 14.305L15.198 15.9867H14.0692L14.6361 14.305Z" fill="white"/>
<path d="M18.5388 17.3471V14.577L20.5654 17.5773C20.7355 17.8287 21.0223 17.9368 21.2957 17.853C21.575 17.7673 21.7556 17.5067 21.7556 17.189V12.6538C21.7556 12.3303 21.4932 12.0679 21.1696 12.0679C20.846 12.0679 20.5836 12.3303 20.5836 12.6538V15.5106L18.4384 12.3347C18.2942 12.1212 18.0277 12.0269 17.7813 12.1023C17.5351 12.1777 17.3669 12.4051 17.3669 12.6626V17.3471C17.3669 17.6707 17.6293 17.9331 17.9528 17.9331C18.2764 17.9331 18.5388 17.6707 18.5388 17.3471Z" fill="white"/>
<path d="M13.5274 9.06428C13.6359 9.25225 13.8328 9.35737 14.0354 9.35737C14.1348 9.35737 14.2355 9.332 14.3278 9.27874L14.4132 9.22946V9.32808C14.4132 9.65164 14.6755 9.91404 14.9991 9.91404C15.3227 9.91404 15.5851 9.65164 15.5851 9.32808V9.2294L15.6705 9.27874C15.7628 9.332 15.8635 9.35737 15.9629 9.35737C16.1654 9.35737 16.3624 9.25225 16.4709 9.06428C16.6328 8.78401 16.5367 8.42563 16.2565 8.26385L16.1711 8.21457L16.2565 8.16529C16.5367 8.00351 16.6328 7.64513 16.4709 7.36486C16.3092 7.08466 15.951 6.98862 15.6705 7.1504L15.5851 7.19974V7.10106C15.5851 6.77749 15.3227 6.5151 14.9991 6.5151C14.6755 6.5151 14.4132 6.77749 14.4132 7.10106V7.19968L14.3278 7.1504C14.0475 6.98862 13.6891 7.0846 13.5274 7.36486C13.3655 7.64513 13.4615 8.00351 13.7418 8.16529L13.8272 8.21457L13.7418 8.26385C13.4615 8.42558 13.3656 8.78401 13.5274 9.06428Z" fill="white"/>
<path d="M16.471 20.9367C16.3092 20.6565 15.9511 20.5604 15.6706 20.7222L15.5851 20.7715V20.6729C15.5851 20.3493 15.3227 20.0869 14.9992 20.0869C14.6756 20.0869 14.4132 20.3493 14.4132 20.6729V20.7715L14.3278 20.7222C14.0475 20.5604 13.6892 20.6565 13.5274 20.9367C13.3656 21.2169 13.4616 21.5753 13.7419 21.7371L13.8273 21.7864L13.7419 21.8357C13.4616 21.9974 13.3656 22.3558 13.5274 22.6361C13.636 22.8241 13.8329 22.9292 14.0354 22.9292C14.1348 22.9292 14.2356 22.9038 14.3278 22.8505L14.4132 22.8013V22.8999C14.4132 23.2235 14.6756 23.4859 14.9992 23.4859C15.3227 23.4859 15.5851 23.2235 15.5851 22.8999V22.8012L15.6706 22.8505C15.7629 22.9038 15.8636 22.9292 15.963 22.9292C16.1655 22.9292 16.3625 22.8241 16.471 22.6361C16.6328 22.3558 16.5368 21.9974 16.2565 21.8357L16.1712 21.7864L16.2565 21.7371C16.5368 21.5754 16.6328 21.2169 16.471 20.9367Z" fill="white"/>
<path d="M20.64 2.72258C20.9636 2.72258 21.2259 2.46025 21.2259 2.13664C21.2259 1.81304 20.9636 1.5507 20.64 1.5507C20.3163 1.5507 20.054 1.81304 20.054 2.13664C20.054 2.46025 20.3163 2.72258 20.64 2.72258Z" fill="white"/>
</svg>
