<svg width="34" height="34" viewBox="0 0 34 34" fill="none" xmlns="http://www.w3.org/2000/svg">
<path d="M27.1668 31.1239L24.9688 31.8119L23.0695 32.4062H13.0946L11.1562 26.2132L4.78125 5.84375L11.1562 3.84824L17.9629 1.71793L24.9688 24.1015L27.1668 31.1239Z" fill="#379A6B"/>
<path d="M22.5072 28.6857L22.9832 30.2067L16.8992 32.1109L16.4232 30.5898L14.9022 31.0659L7.92017 8.75798L9.44113 8.28198L8.96513 6.76094L15.0491 4.85681L15.5251 6.37778L17.0461 5.90171L24.0281 28.2096L22.5072 28.6857Z" fill="#44C086"/>
<path d="M11.1562 1.59375H24.9688V32.4062H11.1562V1.59375Z" fill="#3BA673"/>
<path d="M21.25 28.6875V30.2812H14.875V28.6875H13.2812V5.3125H14.875V3.71875H21.25V5.3125H22.8438V28.6875H21.25Z" fill="#44C086"/>
<path d="M18.0625 19.6562C19.5295 19.6562 20.7188 18.467 20.7188 17C20.7188 15.533 19.5295 14.3438 18.0625 14.3438C16.5955 14.3438 15.4062 15.533 15.4062 17C15.4062 18.467 16.5955 19.6562 18.0625 19.6562Z" fill="#3BA673"/>
<path d="M29.2188 19.6562V32.4062H25.5001C24.0911 32.4062 22.7398 31.8465 21.7435 30.8503C20.7473 29.854 20.1875 28.5027 20.1875 27.0938H20.1982L16.7517 21.9934C16.4362 21.5264 16.3191 20.9532 16.4262 20.3999C16.5333 19.8466 16.8558 19.3585 17.3228 19.043C17.7898 18.7275 18.363 18.6104 18.9163 18.7175C19.4696 18.8246 19.9577 19.1471 20.2732 19.6141L23.375 23.9062H24.9688V11.1562L28.9688 18.6562C29.1329 18.964 29.2188 19.3074 29.2188 19.6562Z" fill="#F5CBAA"/>
</svg>
