<svg width="27" height="27" viewBox="0 0 27 27" fill="none" xmlns="http://www.w3.org/2000/svg">
<g clip-path="url(#clip0)">
<path d="M5.625 0H1.125C0.504 0 0 0.504 0 1.125V5.625C0 6.246 0.504 6.75 1.125 6.75H5.625C6.246 6.75 6.75 6.246 6.75 5.625V1.125C6.75 0.504 6.246 0 5.625 0Z" fill="white"/>
<path d="M5.625 10.125H1.125C0.504 10.125 0 10.629 0 11.25V15.75C0 16.371 0.504 16.875 1.125 16.875H5.625C6.246 16.875 6.75 16.371 6.75 15.75V11.25C6.75 10.629 6.246 10.125 5.625 10.125Z" fill="white"/>
<path d="M5.625 20.25H1.125C0.504 20.25 0 20.754 0 21.375V25.875C0 26.496 0.504 27 1.125 27H5.625C6.246 27 6.75 26.496 6.75 25.875V21.375C6.75 20.754 6.246 20.25 5.625 20.25Z" fill="white"/>
<path d="M15.75 -7.62939e-06H11.25C10.629 -7.62939e-06 10.125 0.503992 10.125 1.12499V5.62499C10.125 6.24599 10.629 6.74999 11.25 6.74999H15.75C16.371 6.74999 16.875 6.24599 16.875 5.62499V1.12499C16.875 0.503992 16.371 -7.62939e-06 15.75 -7.62939e-06Z" fill="white"/>
<path d="M15.75 10.125H11.25C10.629 10.125 10.125 10.629 10.125 11.25V15.75C10.125 16.371 10.629 16.875 11.25 16.875H15.75C16.371 16.875 16.875 16.371 16.875 15.75V11.25C16.875 10.629 16.371 10.125 15.75 10.125Z" fill="white"/>
<path d="M15.75 20.25H11.25C10.629 20.25 10.125 20.754 10.125 21.375V25.875C10.125 26.496 10.629 27 11.25 27H15.75C16.371 27 16.875 26.496 16.875 25.875V21.375C16.875 20.754 16.371 20.25 15.75 20.25Z" fill="white"/>
<path d="M25.875 -7.62939e-06H21.375C20.754 -7.62939e-06 20.25 0.503992 20.25 1.12499V5.62499C20.25 6.24599 20.754 6.74999 21.375 6.74999H25.875C26.496 6.74999 27 6.24599 27 5.62499V1.12499C27 0.503992 26.496 -7.62939e-06 25.875 -7.62939e-06Z" fill="white"/>
<path d="M25.875 10.125H21.375C20.754 10.125 20.25 10.629 20.25 11.25V15.75C20.25 16.371 20.754 16.875 21.375 16.875H25.875C26.496 16.875 27 16.371 27 15.75V11.25C27 10.629 26.496 10.125 25.875 10.125Z" fill="white"/>
<path d="M25.875 20.25H21.375C20.754 20.25 20.25 20.754 20.25 21.375V25.875C20.25 26.496 20.754 27 21.375 27H25.875C26.496 27 27 26.496 27 25.875V21.375C27 20.754 26.496 20.25 25.875 20.25Z" fill="white"/>
</g>
<defs>
<clipPath id="clip0">
<rect width="27" height="27" fill="white"/>
</clipPath>
</defs>
</svg>
