<svg width="33" height="29" viewBox="0 0 33 29" fill="none" xmlns="http://www.w3.org/2000/svg">
<path d="M16.5 2.77544C17.9294 2.77544 19.1641 1.86403 19.6076 0.523262C18.7614 0.756196 17.6829 0.896782 16.5 0.896782C15.3172 0.896782 14.2387 0.756196 13.3926 0.523262C13.8359 1.86392 15.0705 2.77544 16.5 2.77544Z" fill="white"/>
<path d="M32.959 4.42418C32.8911 4.23368 32.7498 4.07701 32.5658 3.9917L26.2742 1.08729C24.9359 0.633924 23.5725 0.275813 22.1958 0.0140698C22.1473 0.00457822 22.0991 0 22.0515 0C21.7107 0 21.4055 0.235279 21.3296 0.580325C20.8269 2.79353 18.8677 4.45053 16.4999 4.45053C14.1323 4.45053 12.173 2.79364 11.6704 0.580325C11.5936 0.235279 11.289 0 10.9484 0C10.9008 0 10.8526 0.00457822 10.8041 0.0140698C9.4275 0.275813 8.06407 0.633924 6.72364 1.08729L0.434316 3.99159C0.249175 4.0769 0.106914 4.23357 0.0422594 4.42407C-0.0246281 4.6168 -0.0125683 4.82483 0.0816773 5.00663L2.81301 10.3969C2.94087 10.6528 3.20094 10.8063 3.47608 10.8063C3.5471 10.8063 3.61912 10.796 3.69014 10.7747L6.72375 9.87557V27.962C6.72375 28.3727 7.05886 28.7077 7.47068 28.7077H25.5295C25.9402 28.7077 26.2743 28.3726 26.2743 27.962V9.87579L29.3101 10.7749C29.3811 10.7962 29.453 10.8065 29.5239 10.8065C29.7985 10.8065 30.0576 10.653 30.1872 10.3972L32.9195 5.00685C33.0116 4.82495 33.0247 4.61691 32.959 4.42418Z" fill="white"/>
</svg>
