<svg width="29" height="29" viewBox="0 0 29 29" fill="none" xmlns="http://www.w3.org/2000/svg">
<g clip-path="url(#clip0)">
<path d="M27.0717 14.8756C26.955 14.6369 26.955 14.3631 27.0717 14.1244L28.1533 11.9117C28.7555 10.6798 28.2783 9.21136 27.067 8.56866L24.8915 7.41433C24.6568 7.28983 24.4958 7.06826 24.4499 6.80664L24.0244 4.38079C23.7875 3.03014 22.5381 2.12254 21.1806 2.31461L18.7421 2.65955C18.4789 2.6967 18.2186 2.61208 18.0277 2.42738L16.2576 0.715027C15.272 -0.238456 13.728 -0.238513 12.7425 0.715027L10.9724 2.42755C10.7814 2.61231 10.5211 2.69676 10.2579 2.65972L7.81942 2.31478C6.46146 2.1226 5.21254 3.03031 4.97562 4.38096L4.55014 6.80669C4.5042 7.06837 4.34329 7.28989 4.10863 7.41444L1.93307 8.56877C0.721762 9.21141 0.244624 10.6799 0.846824 11.9119L1.92837 14.1245C2.04505 14.3632 2.04505 14.637 1.92837 14.8757L0.846767 17.0883C0.244567 18.3203 0.721705 19.7887 1.93301 20.4314L4.10857 21.5857C4.34329 21.7102 4.5042 21.9318 4.55014 22.1934L4.97562 24.6193C5.19131 25.8488 6.24561 26.7111 7.45731 26.711C7.57665 26.711 7.69775 26.7026 7.81947 26.6854L10.258 26.3405C10.521 26.3031 10.7814 26.3879 10.9724 26.5726L12.7425 28.285C13.2354 28.7618 13.8676 29.0001 14.5 29.0001C15.1323 29 15.7649 28.7617 16.2576 28.285L18.0277 26.5726C18.2187 26.3879 18.479 26.3035 18.7421 26.3405L21.1806 26.6854C22.5388 26.8775 23.7875 25.9699 24.0244 24.6192L24.45 22.1935C24.4959 21.9318 24.6568 21.7103 24.8915 21.5857L27.067 20.4314C28.2783 19.7888 28.7555 18.3203 28.1533 17.0883L27.0717 14.8756ZM11.1548 6.97333C12.8456 6.97333 14.2212 8.34895 14.2212 10.0398C14.2212 11.7306 12.8456 13.1062 11.1548 13.1062C9.46397 13.1062 8.08834 11.7306 8.08834 10.0398C8.08834 8.34895 9.46397 6.97333 11.1548 6.97333ZM9.57204 20.6106C9.40874 20.7739 9.1947 20.8556 8.98071 20.8556C8.76672 20.8556 8.55262 20.774 8.38939 20.6106C8.0628 20.284 8.0628 19.7545 8.38939 19.4279L19.428 8.38934C19.7545 8.06275 20.2841 8.06275 20.6107 8.38934C20.9373 8.71592 20.9373 9.24545 20.6107 9.57204L9.57204 20.6106ZM17.8451 22.0267C16.1543 22.0267 14.7787 20.6511 14.7787 18.9603C14.7787 17.2695 16.1543 15.8938 17.8451 15.8938C19.536 15.8938 20.9116 17.2695 20.9116 18.9603C20.9116 20.6511 19.536 22.0267 17.8451 22.0267Z" fill="white"/>
<path d="M17.8452 17.5665C17.0766 17.5665 16.4513 18.1917 16.4513 18.9603C16.4513 19.7288 17.0765 20.3541 17.8452 20.3541C18.6137 20.3541 19.239 19.7288 19.239 18.9603C19.239 18.1917 18.6137 17.5665 17.8452 17.5665Z" fill="white"/>
<path d="M11.1548 8.64591C10.3862 8.64591 9.76099 9.27116 9.76099 10.0397C9.76099 10.8083 10.3862 11.4336 11.1548 11.4336C11.9233 11.4336 12.5487 10.8083 12.5487 10.0397C12.5486 9.27122 11.9233 8.64591 11.1548 8.64591Z" fill="white"/>
</g>
<defs>
<clipPath id="clip0">
<rect width="29" height="29" fill="white"/>
</clipPath>
</defs>
</svg>
