<svg width="45" height="28" viewBox="0 0 45 28" fill="none" xmlns="http://www.w3.org/2000/svg">
<path d="M28.5849 2.99329H16.4175V25.0069H28.5849V2.99329Z" fill="#FF5F00"/>
<path d="M17.1878 14C17.1859 11.8799 17.6631 9.78721 18.5833 7.88026C19.5034 5.97331 20.8425 4.30212 22.499 2.99321C20.4476 1.36984 17.984 0.360297 15.3897 0.0799579C12.7953 -0.200382 10.175 0.259786 7.82818 1.40789C5.48135 2.55599 3.5027 4.34569 2.1184 6.57242C0.734094 8.79916 0 11.3731 0 14C0 16.6269 0.734094 19.2008 2.1184 21.4276C3.5027 23.6543 5.48135 25.444 7.82818 26.5921C10.175 27.7402 12.7953 28.2004 15.3897 27.92C17.984 27.6397 20.4476 26.6302 22.499 25.0068C20.8425 23.6979 19.5035 22.0267 18.5833 20.1197C17.6631 18.2128 17.1859 16.1201 17.1878 14Z" fill="#EB001B"/>
<path d="M44.9998 14C44.9999 16.6269 44.2658 19.2008 42.8816 21.4275C41.4974 23.6543 39.5188 25.444 37.172 26.5921C34.8252 27.7402 32.205 28.2004 29.6107 27.92C27.0164 27.6397 24.5528 26.6302 22.5015 25.0068C24.1565 23.6966 25.4945 22.0251 26.4145 20.1184C27.3345 18.2118 27.8126 16.1197 27.8126 14C27.8126 11.8803 27.3345 9.7882 26.4145 7.88155C25.4945 5.9749 24.1565 4.30344 22.5015 2.9932C24.5528 1.36984 27.0164 0.36029 29.6107 0.0799542C32.205 -0.200382 34.8252 0.259806 37.172 1.40792C39.5188 2.55603 41.4974 4.34573 42.8816 6.57247C44.2658 8.7992 44.9999 11.3731 44.9998 14Z" fill="#F79E1B"/>
<path d="M43.6732 22.6756V22.2249H43.8537V22.1331H43.394V22.2249H43.5746V22.6756H43.6732ZM44.5657 22.6756V22.1322H44.4248L44.2627 22.506L44.1006 22.1322H43.9596V22.6756H44.0591V22.2657L44.2111 22.6191H44.3143L44.4663 22.2648V22.6756H44.5657Z" fill="#F79E1B"/>
</svg>
