<svg width="25" height="25" viewBox="0 0 25 25" fill="none" xmlns="http://www.w3.org/2000/svg">
<path d="M2.92969 13.4766H8.59375C10.2092 13.4766 11.5234 14.7908 11.5234 16.4062V22.0703C11.5234 23.6857 10.2092 25 8.59375 25H2.92969C1.31426 25 0 23.6857 0 22.0703V16.4062C0 14.7908 1.31426 13.4766 2.92969 13.4766ZM1.95312 22.0703C1.95312 22.6088 2.39121 23.0469 2.92969 23.0469H8.59375C9.13223 23.0469 9.57031 22.6088 9.57031 22.0703V16.4062C9.57031 15.8678 9.13223 15.4297 8.59375 15.4297H2.92969C2.39121 15.4297 1.95312 15.8678 1.95312 16.4062V22.0703ZM16.4062 13.4766H22.0703C23.6857 13.4766 25 14.7908 25 16.4062V22.0703C25 23.6857 23.6857 25 22.0703 25H16.4062C14.7908 25 13.4766 23.6857 13.4766 22.0703V16.4062C13.4766 14.7908 14.7908 13.4766 16.4062 13.4766ZM15.4297 22.0703C15.4297 22.6088 15.8678 23.0469 16.4062 23.0469H22.0703C22.6088 23.0469 23.0469 22.6088 23.0469 22.0703V16.4062C23.0469 15.8678 22.6088 15.4297 22.0703 15.4297H16.4062C15.8678 15.4297 15.4297 15.8678 15.4297 16.4062V22.0703ZM16.4062 0H22.0703C23.6857 0 25 1.31426 25 2.92969V8.59375C25 10.2092 23.6857 11.5234 22.0703 11.5234H16.4062C14.7908 11.5234 13.4766 10.2092 13.4766 8.59375V2.92969C13.4766 1.31426 14.7908 0 16.4062 0ZM15.4297 8.59375C15.4297 9.13223 15.8678 9.57031 16.4062 9.57031H22.0703C22.6088 9.57031 23.0469 9.13223 23.0469 8.59375V2.92969C23.0469 2.39121 22.6088 1.95312 22.0703 1.95312H16.4062C15.8678 1.95312 15.4297 2.39121 15.4297 2.92969V8.59375ZM2.92969 0H8.59375C10.2092 0 11.5234 1.31426 11.5234 2.92969V8.59375C11.5234 10.2092 10.2092 11.5234 8.59375 11.5234H2.92969C1.31426 11.5234 0 10.2092 0 8.59375V2.92969C0 1.31426 1.31426 0 2.92969 0ZM1.95312 8.59375C1.95312 9.13223 2.39121 9.57031 2.92969 9.57031H8.59375C9.13223 9.57031 9.57031 9.13223 9.57031 8.59375V2.92969C9.57031 2.39121 9.13223 1.95312 8.59375 1.95312H2.92969C2.39121 1.95312 1.95312 2.39121 1.95312 2.92969V8.59375Z" fill="#8E8E8E"/>
</svg>
