<svg width="21" height="21" viewBox="0 0 21 21" fill="none" xmlns="http://www.w3.org/2000/svg">
<path fill-rule="evenodd" clip-rule="evenodd" d="M15.832 14.2793L20.207 18.6597C20.4024 18.8769 20.3928 19.2096 20.1852 19.4153L19.4195 20.1818C19.3169 20.2855 19.1771 20.3437 19.0312 20.3437C18.8854 20.3437 18.7456 20.2855 18.643 20.1818L14.2679 15.8016C14.1469 15.6803 14.0372 15.5483 13.9398 15.4073L13.1195 14.3123C11.7622 15.3973 10.0768 15.9882 8.33983 15.9877C4.76066 16.0002 1.65049 13.5282 0.85064 10.0353C0.0507874 6.54238 1.77472 2.96076 5.00182 1.41084C8.22893 -0.13908 12.0979 0.756342 14.3183 3.56699C16.5387 6.37763 16.5177 10.3534 14.2679 13.1405L15.3618 13.8961C15.5325 14.0056 15.6903 14.1342 15.832 14.2793ZM2.87109 8.32219C2.87109 11.3461 5.31954 13.7975 8.33983 13.7975C9.79024 13.7975 11.1812 13.2207 12.2068 12.1938C13.2324 11.167 13.8085 9.77434 13.8085 8.32219C13.8085 5.29825 11.3601 2.84685 8.33983 2.84685C5.31954 2.84685 2.87109 5.29825 2.87109 8.32219Z" fill="#8E8E8E"/>
</svg>
