<svg width="25" height="25" viewBox="0 0 25 25" fill="none" xmlns="http://www.w3.org/2000/svg">
<path fill-rule="evenodd" clip-rule="evenodd" d="M22.5826 11.8896C22.5697 11.8945 22.559 11.9031 22.5473 11.9105C22.2003 12.1389 21.7934 12.2752 21.3533 12.2752C20.1169 12.2752 19.1107 11.2288 19.1107 9.94276C19.1107 9.53498 18.7944 9.20458 18.404 9.20458C18.0123 9.20458 17.6961 9.53498 17.6961 9.94276C17.6961 11.2288 16.6898 12.2752 15.4547 12.2752C14.2183 12.2752 13.2119 11.2288 13.2119 9.94276C13.2119 9.53498 12.8958 9.20458 12.5052 9.20458C12.1136 9.20458 11.7974 9.53498 11.7974 9.94276C11.7974 11.2288 10.7911 12.2752 9.55591 12.2752C8.31953 12.2752 7.31322 11.2288 7.31322 9.94276C7.31322 9.53498 6.99705 9.20458 6.60656 9.20458C6.21487 9.20458 5.8987 9.53498 5.8987 9.94276C5.8987 11.2288 4.89239 12.2752 3.6572 12.2752C3.23367 12.2752 2.84082 12.1463 2.50223 11.9375C2.47038 11.919 2.44207 11.8994 2.40785 11.8859C1.80855 11.4769 1.41097 10.794 1.40507 10.0644L2.47156 3.42807C2.65206 2.29562 3.58406 1.47514 4.6883 1.47514H20.321C21.4253 1.47514 22.3573 2.29562 22.5378 3.4293L23.5949 9.94276C23.5949 10.7559 23.1914 11.472 22.5826 11.8896ZM22.1402 21.1863C22.1402 22.476 21.1327 23.5261 19.8928 23.5261H16.1672V18.1082C16.1672 17.7017 15.8499 17.3713 15.4593 17.3713H9.55001C9.15951 17.3713 8.84217 17.7017 8.84217 18.1082V23.5261H5.11655C3.87664 23.5261 2.86914 22.476 2.86914 21.1863V13.6558C3.12277 13.7136 3.38586 13.7504 3.6572 13.7504C4.86643 13.7504 5.94 13.1362 6.60656 12.1917C7.27193 13.1362 8.34549 13.7504 9.55591 13.7504C10.7651 13.7504 11.8387 13.1362 12.5052 12.1917C13.1707 13.1362 14.2442 13.7504 15.4547 13.7504C16.6639 13.7504 17.7374 13.1362 18.404 12.1917C19.0693 13.1362 20.143 13.7504 21.3533 13.7504C21.6247 13.7504 21.8866 13.7136 22.1402 13.6545V21.1863ZM10.2567 23.5261H14.7527V18.8464H10.2567V23.5261ZM23.9347 3.18611C23.6397 1.34004 22.1201 0 20.321 0H4.6883C2.88919 0 1.36968 1.34004 1.07475 3.18611L0 9.94276C0 11.1772 0.576894 12.2654 1.45344 12.9618V21.1863C1.45344 23.289 3.09682 25 5.11655 25H19.8928C21.9125 25 23.5559 23.289 23.5559 21.1863V12.952C24.4312 12.2433 25.0058 11.1268 24.9999 9.81994L23.9347 3.18611Z" fill="#8E8E8E"/>
</svg>
