<svg width="55" height="55" viewBox="0 0 55 55" fill="none" xmlns="http://www.w3.org/2000/svg">
<g clip-path="url(#clip0)">
<path d="M20.1665 35.4008L22.9602 19.6865H27.3252L24.6189 35.4008H20.1665Z" fill="#3C58BF"/>
<path d="M20.1665 35.4008L23.7459 19.6865H27.3252L24.6189 35.4008H20.1665Z" fill="#293688"/>
<path d="M40.4206 19.8611C39.5476 19.5119 38.1508 19.1627 36.4047 19.1627C32.0397 19.1627 28.8968 21.3452 28.8968 24.4881C28.8968 26.8452 31.0793 28.0675 32.8254 28.8532C34.5714 29.6389 35.0952 30.1627 35.0952 30.8611C35.0952 31.9087 33.6984 32.4325 32.4762 32.4325C30.7301 32.4325 29.7698 32.1706 28.2857 31.5595L27.6746 31.2976L27.0635 34.877C28.1111 35.3135 30.0317 35.75 32.0397 35.75C36.6667 35.75 39.7222 33.5675 39.7222 30.25C39.7222 28.4167 38.5873 27.0198 35.9682 25.8849C34.3968 25.0992 33.4365 24.6627 33.4365 23.877C33.4365 23.1786 34.2222 22.4802 35.9682 22.4802C37.4524 22.4802 38.5 22.7421 39.2857 23.0913L39.7222 23.2659L40.4206 19.8611Z" fill="#3C58BF"/>
<path d="M40.4206 19.8611C39.5476 19.5119 38.1508 19.1627 36.4047 19.1627C32.0397 19.1627 29.6825 21.3452 29.6825 24.4881C29.6825 26.8452 31.0793 28.0675 32.8254 28.8532C34.5714 29.6389 35.0952 30.1627 35.0952 30.8611C35.0952 31.9087 33.6984 32.4325 32.4762 32.4325C30.7301 32.4325 29.7698 32.1706 28.2857 31.5595L27.6746 31.2976L27.0635 34.877C28.1111 35.3135 30.0317 35.75 32.0397 35.75C36.6667 35.75 39.7222 33.5675 39.7222 30.25C39.7222 28.4167 38.5873 27.0198 35.9682 25.8849C34.3968 25.0992 33.4365 24.6627 33.4365 23.877C33.4365 23.1786 34.2222 22.4802 35.9682 22.4802C37.4524 22.4802 38.5 22.7421 39.2857 23.0913L39.7222 23.2659L40.4206 19.8611Z" fill="#293688"/>
<path d="M47.9288 19.6865C46.8812 19.6865 46.0955 19.7738 45.6589 20.8214L39.1113 35.4008H43.8256L44.6986 32.7817H50.2859L50.8097 35.4008H55.0002L51.3336 19.6865H47.9288ZM45.9209 30.1627C46.1828 29.377 47.6669 25.5357 47.6669 25.5357C47.6669 25.5357 48.0161 24.5754 48.278 23.9643L48.5399 25.4484C48.5399 25.4484 49.4129 29.377 49.5875 30.25H45.9209V30.1627Z" fill="#3C58BF"/>
<path d="M48.9764 19.6865C47.9288 19.6865 47.1431 19.7738 46.7066 20.8214L39.1113 35.4008H43.8256L44.6986 32.7817H50.2859L50.8097 35.4008H55.0002L51.3336 19.6865H48.9764ZM45.9209 30.1627C46.2701 29.2897 47.6669 25.5357 47.6669 25.5357C47.6669 25.5357 48.0161 24.5754 48.278 23.9643L48.5399 25.4484C48.5399 25.4484 49.4129 29.377 49.5875 30.25H45.9209V30.1627Z" fill="#293688"/>
<path d="M12.135 30.6865L11.6985 28.4167C10.9128 25.7976 8.38105 22.9167 5.5874 21.5198L9.51597 35.4881H14.2303L21.3017 19.7738H16.5874L12.135 30.6865Z" fill="#3C58BF"/>
<path d="M12.135 30.6865L11.6985 28.4167C10.9128 25.7976 8.38105 22.9167 5.5874 21.5198L9.51597 35.4881H14.2303L21.3017 19.7738H17.4604L12.135 30.6865Z" fill="#293688"/>
<path d="M0 19.6865L0.785714 19.8611C6.37302 21.1706 10.2143 24.4881 11.6984 28.4167L10.127 20.996C9.86508 19.9484 9.07936 19.6865 8.11905 19.6865H0Z" fill="#FFBC00"/>
<path d="M0 19.6865C5.5873 20.996 10.2143 24.4008 11.6984 28.3294L10.2143 22.131C9.95238 21.0833 9.07936 20.4722 8.11905 20.4722L0 19.6865Z" fill="#F7981D"/>
<path d="M0 19.6865C5.5873 20.996 10.2143 24.4008 11.6984 28.3294L10.6508 24.9246C10.3889 23.877 10.0397 22.8294 8.81746 22.3929L0 19.6865Z" fill="#ED7C00"/>
<path d="M16.5002 30.1627L13.5319 27.1944L12.1351 30.5119L11.7859 28.3294C11.0002 25.7103 8.46846 22.8294 5.6748 21.4325L9.60338 35.4008H14.3177L16.5002 30.1627Z" fill="#051244"/>
<path d="M24.6194 35.4008L20.8654 31.5595L20.167 35.4008H24.6194Z" fill="#051244"/>
<path d="M34.6587 29.9881C35.0079 30.3373 35.1825 30.5992 35.0952 30.9484C35.0952 31.996 33.6984 32.5198 32.4762 32.5198C30.7301 32.5198 29.7698 32.2579 28.2857 31.6468L27.6746 31.3849L27.0635 34.9643C28.1111 35.4008 30.0317 35.8373 32.0397 35.8373C34.8333 35.8373 37.1032 35.0516 38.4127 33.6548L34.6587 29.9881Z" fill="#051244"/>
<path d="M39.7227 35.4008H43.8258L44.6988 32.7818H50.2861L50.81 35.4008H55.0004L53.5163 29.0278L48.2782 23.9643L48.5401 25.3611C48.5401 25.3611 49.4131 29.2897 49.5877 30.1627H45.9211C46.2703 29.2897 47.6671 25.5357 47.6671 25.5357C47.6671 25.5357 48.0163 24.5754 48.2782 23.9643" fill="#051244"/>
</g>
<defs>
<clipPath id="clip0">
<rect width="55" height="55" fill="white"/>
</clipPath>
</defs>
</svg>
