<svg width="41" height="41" viewBox="0 0 41 41" fill="none" xmlns="http://www.w3.org/2000/svg">
<g clip-path="url(#clip0)">
<path d="M28.6524 17.0336C28.2861 17.3261 28.2262 17.8614 28.5187 18.2277C28.8112 18.594 29.3464 18.6539 29.7127 18.3614C30.079 18.0689 30.139 17.5337 29.8465 17.1674C29.554 16.8011 29.0188 16.7411 28.6524 17.0336Z" fill="white"/>
<path d="M25.214 4.5579L9.91048 16.7778L11.5009 18.7696C11.7939 19.1365 11.7341 19.6706 11.3671 19.9636C11.0001 20.2566 10.4661 20.1968 10.1731 19.8298L8.58264 17.8381L3.88011 21.5931C3.51314 21.8861 3.4533 22.4201 3.74633 22.7871L6.92716 26.7706C7.22019 27.1376 7.75425 27.1974 8.12122 26.9044C9.21952 26.0274 10.8264 26.2074 11.7034 27.3057C12.5804 28.404 12.4004 30.0109 11.3021 30.8879C10.9351 31.1809 10.8753 31.715 11.1683 32.082L14.3491 36.0655C14.6421 36.4325 15.1762 36.4923 15.5432 36.1993L20.1906 32.4883L18.6002 30.4965C18.3072 30.1296 18.367 29.5955 18.734 29.3025C19.1009 29.0095 19.635 29.0693 19.928 29.4363L21.5184 31.428L36.8771 19.1641C37.2441 18.8711 37.3039 18.337 37.0109 17.9701L26.4081 4.69168C26.1151 4.32471 25.581 4.26488 25.214 4.5579ZM17.8075 26.7806C18.1005 27.1476 18.0407 27.6816 17.6737 27.9746C17.3067 28.2677 16.7727 28.2078 16.4796 27.8409L15.4194 26.513C15.1263 26.1461 15.1862 25.612 15.5531 25.319C15.9201 25.0259 16.4542 25.0858 16.7472 25.4527L17.8075 26.7806ZM14.6266 22.7971C14.9197 23.164 14.8598 23.6981 14.4929 23.9911C14.1259 24.2842 13.5918 24.2243 13.2988 23.8573L12.2385 22.5295C11.9455 22.1625 12.0053 21.6285 12.3723 21.3355C12.7393 21.0424 13.2733 21.1023 13.5664 21.4692L14.6266 22.7971ZM17.6384 18.2177C16.7614 17.1194 16.9414 15.5125 18.0397 14.6355C19.138 13.7585 20.7449 13.9386 21.6219 15.0369C22.4989 16.1352 22.3189 17.7421 21.2206 18.619C20.1223 19.496 18.5154 19.316 17.6384 18.2177ZM25.0044 24.1129C24.5364 24.1531 24.1253 23.8072 24.0851 23.3393L23.0347 11.1311C22.9939 10.6637 23.3403 10.2532 23.8084 10.2118C24.2763 10.1716 24.6874 10.5175 24.7277 10.9855L25.778 23.1936C25.818 23.6544 25.4788 24.0708 25.0044 24.1129ZM30.773 19.6893C29.6747 20.5663 28.0678 20.3862 27.1909 19.2879C26.3139 18.1896 26.4939 16.5828 27.5922 15.7058C28.6905 14.8288 30.2974 15.0088 31.1744 16.1071C32.0514 17.2054 31.8713 18.8123 30.773 19.6893Z" fill="white"/>
<path d="M19.1 15.9634C18.7337 16.2559 18.6737 16.7911 18.9662 17.1574C19.2587 17.5237 19.794 17.5837 20.1603 17.2912C20.5266 16.9987 20.5866 16.4635 20.2941 16.0972C20.0016 15.7308 19.4663 15.6709 19.1 15.9634Z" fill="white"/>
</g>
<defs>
<clipPath id="clip0">
<rect width="29" height="29" fill="white" transform="translate(0 18.0954) rotate(-38.6074)"/>
</clipPath>
</defs>
</svg>
